# xmcd CD database file
# Copyright (C) 1993-1996 Ti Kan
#
# Track frame offsets:
# 150
# 10260
# 22710
# 34487
# 44747
# 56527
# 70105
# 82097
# 92882
# 105217
# 118875
# 130340
# 138555
# 149492
# 162122
# 174822
# 186797
# 195747
# 209272
# 221942
# 233735
# 244547
# 257305
# 268325
# 277700
# 290122
# 300135
# 310170
# 323875
# 332205
# 344240
#
# Disc length: 4758 seconds
#
# Revision: 0
# Processed by: cddbd v1.4b41PL1 Copyright (c) Steve Scherf et al.
# Submitted via: inCDius 1.1b5
#
DISCID=d012941f
DTITLE=George Hamilton 4th - To You And Yours,From Me And Mine - Disc 4
DYEAR=1900
DGENRE=
TTITLE0=Can I Let Her See Me 
TTITLE1=To You And Yours (From Me And Mine)
TTITLE2=Three Steps To The Phone(Millions Of Miles))s
TTITLE3=The Ballad  Of Widder Jones
TTITLE4=I Want A Girl
TTITLE5=Those Brown Eyes
TTITLE6=Where Did The Sunshine Go
TTITLE7=Baby Blue Eyes
TTITLE8=Life's Railway To Heaven
TTITLE9=East Virginia
TTITLE10=The Wall
TTITLE11=If You Don't,Somebody Else Will
TTITLE12=Rainbow
TTITLE13=I Will Miss You When You Go
TTITLE14=Life Is Too Short
TTITLE15=China Doll
TTITLE16=Tender Hearted Baby
TTITLE17=Commerce Street And Sixth Avenue North
TTITLE18=If You Don't Know I Ain't Gonna Tell You
TTITLE19=(I Want To Go)Where Nobody Knows Me
TTITLE20=The Roving Gambler
TTITLE21=Oh So Many Years
TTITLE22=Jimmy Brown The Newsboy
TTITLE23=The Little Lunch Box
TTITLE24=Come On Home Boy
TTITLE25=The Everglades
TTITLE26=You Are My Sunshine
TTITLE27=The Last Letter
TTITLE28=If You Want Me To
TTITLE29=Linda With The Lonely Eyes
TTITLE30=In This Very Same Room
EXTD=
EXTT0=
EXTT1=
EXTT2=
EXTT3=
EXTT4=
EXTT5=
EXTT6=
EXTT7=
EXTT8=
EXTT9=
EXTT10=
EXTT11=
EXTT12=
EXTT13=
EXTT14=
EXTT15=
EXTT16=
EXTT17=
EXTT18=
EXTT19=
EXTT20=
EXTT21=
EXTT22=
EXTT23=
EXTT24=
EXTT25=
EXTT26=
EXTT27=
EXTT28=
EXTT29=
EXTT30=
PLAYORDER=
